<?xml version="1.0" encoding="UTF-8" standalone="no"?>
<!DOCTYPE svg PUBLIC "-//W3C//DTD SVG 1.1//EN" "http://www.w3.org/Graphics/SVG/1.1/DTD/svg11.dtd">
<svg width="100%" height="100%" viewBox="0 0 20 30" version="1.1" xmlns="http://www.w3.org/2000/svg" xmlns:xlink="http://www.w3.org/1999/xlink" xml:space="preserve" xmlns:serif="http://www.serif.com/" style="fill-rule:evenodd;clip-rule:evenodd;stroke-linejoin:round;stroke-miterlimit:2;">
    <g transform="matrix(0.988744,0,0,0.988744,-358.802,-526.832)">
        <circle cx="373" cy="548" r="9" style="fill:rgb(41,41,41);"/>
    </g>
    <g transform="matrix(0.988744,0,0,0.988744,-358.802,-526.832)">
        <path d="M373,538.289C367.641,538.289 363.289,542.641 363.289,548C363.289,553.359 367.641,557.711 373,557.711C378.359,557.711 382.711,553.359 382.711,548C382.711,542.641 378.359,538.289 373,538.289ZM373,539.711C377.575,539.711 381.289,543.425 381.289,548C381.289,552.575 377.575,556.289 373,556.289C368.425,556.289 364.711,552.575 364.711,548C364.711,543.425 368.425,539.711 373,539.711Z" style="fill:rgb(170,170,170);"/>
    </g>
    <g transform="matrix(0.988744,0,0,0.988744,-358.802,-526.832)">
        <path d="M373,538.079C367.524,538.079 363.079,542.524 363.079,548C363.079,553.476 367.524,557.921 373,557.921C378.476,557.921 382.921,553.476 382.921,548C382.921,542.524 378.476,538.079 373,538.079ZM373,538.5C378.243,538.5 382.5,542.757 382.5,548C382.5,553.243 378.243,557.5 373,557.5C367.757,557.5 363.5,553.243 363.5,548C363.5,542.757 367.757,538.5 373,538.5ZM373,539.5C368.309,539.5 364.5,543.309 364.5,548C364.5,552.691 368.309,556.5 373,556.5C377.691,556.5 381.5,552.691 381.5,548C381.5,543.309 377.691,539.5 373,539.5ZM373,539.921C377.459,539.921 381.079,543.541 381.079,548C381.079,552.459 377.459,556.079 373,556.079C368.541,556.079 364.921,552.459 364.921,548C364.921,543.541 368.541,539.921 373,539.921Z" style="fill:rgb(81,81,81);"/>
    </g>
    <g transform="matrix(0.27848,0,0,0.27848,-93.8731,-137.607)">
        <circle cx="373" cy="548" r="9" style="fill:rgb(208,208,208);"/>
    </g>
    <g transform="matrix(-0.708254,0.607453,-0.311769,-0.363504,18.3339,5.97349)">
        <path d="M14.762,1.213L11.911,-7.678L22.437,-16.222L23.583,-12.409L14.762,1.213Z" style="fill:rgb(208,208,208);"/>
    </g>
    <g transform="matrix(0.573144,0,0,0.573144,-206.783,-289.274)">
        <circle cx="373" cy="548" r="9" style="fill:rgb(108,110,138);"/>
    </g>
    <g transform="matrix(0.387597,0,0,0.387597,-138.644,-187.716)">
        <circle cx="373" cy="548" r="9" style="fill:rgb(147,152,172);"/>
    </g>
    <g transform="matrix(0.171944,0,0,0.110756,-59.4563,-36.7216)">
        <circle cx="373" cy="548" r="9" style="fill:rgb(225,230,242);"/>
    </g>
</svg>
